<svg xmlns="http://www.w3.org/2000/svg" width="115.889" height="81.231" viewBox="0 0 115.889 81.231">
  <path id="Tracé_8908" data-name="Tracé 8908" d="M144.77,120.386a1.947,1.947,0,0,0-2.451.4c-6.12,5.16-24.3,10.786-29.735,1.207-1.495-2.738-2.7-5.07-3.878-6.8-3.408-5.011-8.9-.855-13.474-2.26-2.2-.675-4.138-2.569-5.573-7.091-.634-1.995-.118-2.6.854-2.933.834-.282,4.352-1.49,5.522-1.954,8.836-3.5,3.648-4.223,12.837-8.962,0,0-.529-3.39-.678-5.077-.273-3.123.388-3.435,2.156-1.246,1.4,1.729,2.623,3.234,2.623,3.234.514.6.986.715,1.2-.252l1.206-6.274c.581-3.544,1.676-3.608,3.443-.387,2.61,4.76,4.086,7.321,10.354,12.929,6.353,5.684,5.483,14.936.933,22.4-.645,1.016-.781,1.795-.217,2.507.445.564,1.245.88,2.609.388C143.919,116.108,152.417,103,146.871,88.7A33.54,33.54,0,0,0,119.5,67.766c-4.727-.573-11.18-.26-18.991,3.647a18.838,18.838,0,0,0-1.6-3.867c-3.811-6.915-11.818-9.811-17.883-6.469-5.2,2.745-8.324,10.5-4.083,18.575a15.491,15.491,0,0,0,7.744,6.934,27.264,27.264,0,0,0-3.991,11.825c-.061.6-.228.942-.618.982s-.641-.3-.835-1.087c-1.053-4.259.672-9.313.691-9.378a17.529,17.529,0,0,1-9.554-18.666H42.434c-5.177,0-7.485,4.907-7.485,8.319h0c0,4.325,2.19,8.439,7.485,8.439H63.094c1.507,0,1.683.984.868,1.7l-9.64,8.441c-1.512,1.375-2.8,3-2.436,5.8.337,2.6,2.315,4.915,7.7,4.915l1.706,0c5.934-.03,10.124,2.157,10.124,8.176,0,4.349-3.5,8.518-10.1,8.561-5.723.036-10.2-2.379-14.948-7.33-2.8-2.923-6.7-3.4-10.523.264-3.006,2.88-4.628,6.68-1.227,10.682,2.353,2.767,11.628,12.682,26.884,12.682,14.465,0,23.733-9.206,26.663-12.993a33.608,33.608,0,0,0,26.5,12.982c11.905,0,23.965-6.4,30.053-17.335.607-1.092,1.171-2.515.042-3.186" transform="translate(-32.722 -59.688)" fill="#e00000"/>
</svg>
